<svg xmlns="http://www.w3.org/2000/svg" width="512" height="512" viewBox="0 0 512 512" role="img" aria-label="Rotina">
  <defs>
    <linearGradient id="bg" x1="0" y1="0" x2="1" y2="1">
      <stop offset="0" stop-color="#2c5446"/>
      <stop offset="1" stop-color="#122a22"/>
    </linearGradient>
  </defs>
  <rect width="512" height="512" rx="96" fill="url(#bg)"/>
  <g transform="translate(96 88) scale(5)">
    <path d="M17 55 H47 V50 L42 47 C47.5 42 50.5 35.5 50.5 28 C50.5 15.5 40 7.5 27 8 L21.5 15.5 L27.5 18 C18.5 23 13 31.5 13 40.5 L20 43.5 C21.5 37 25.5 32.5 30.5 31.5 L26 47 L21 50 Z" fill="#f5f3ec"/>
    <path d="M31 8 L36.5 2.5 L40 10 Z" fill="#f5f3ec"/>
    <path d="M44 14 C48 18 50 23 50 28 C50 33 48.5 37.5 45.5 41 L43 39 C45.5 36 46.8 32.3 46.8 28 C46.8 24 45.5 20 43 17 Z" fill="#d6c48b" opacity="0.9"/>
    <circle cx="31.6" cy="23.5" r="2.2" fill="#122a22"/>
  </g>
</svg>
